<svg width="44" height="44" viewBox="0 0 44 44" fill="none" xmlns="http://www.w3.org/2000/svg">
<path d="M16.284 41.171C12.9761 40.1834 9.98018 38.3561 7.588 35.867C8.35768 34.9541 8.83747 33.8324 8.96599 32.6453C9.09451 31.4582 8.86591 30.2597 8.30944 29.2033C7.75298 28.1468 6.89395 27.2804 5.84229 26.7149C4.79063 26.1495 3.59417 25.9106 2.406 26.029C2.13532 24.7031 1.9993 23.3533 2 22C2 19.91 2.32 17.894 2.916 16H3C4.01976 16.0004 5.02277 15.7408 5.91434 15.2458C6.8059 14.7508 7.55659 14.0367 8.09553 13.171C8.63447 12.3053 8.94387 11.3165 8.99452 10.298C9.04517 9.27953 8.8354 8.26493 8.385 7.35002C10.7296 5.16685 13.5651 3.57985 16.652 2.72302C17.1544 3.70942 17.9198 4.53762 18.8637 5.11597C19.8076 5.69433 20.893 6.0003 22 6.00002C23.107 6.0003 24.1924 5.69433 25.1363 5.11597C26.0802 4.53762 26.8456 3.70942 27.348 2.72302C30.4349 3.57985 33.2704 5.16685 35.615 7.35002C35.1613 8.27133 34.9517 9.29367 35.0062 10.3192C35.0608 11.3447 35.3776 12.339 35.9264 13.207C36.4752 14.0751 37.2376 14.7877 38.1407 15.2767C39.0437 15.7657 40.0572 16.0148 41.084 16C41.693 17.9417 42.0018 19.9651 42 22C42 23.38 41.86 24.728 41.594 26.029C40.4058 25.9106 39.2094 26.1495 38.1577 26.7149C37.1061 27.2804 36.247 28.1468 35.6906 29.2033C35.1341 30.2597 34.9055 31.4582 35.034 32.6453C35.1625 33.8324 35.6423 34.9541 36.412 35.867C34.0198 38.3561 31.0239 40.1834 27.716 41.171C27.3276 39.9603 26.5647 38.9042 25.5374 38.155C24.5102 37.4057 23.2715 37.002 22 37.002C20.7285 37.002 19.4899 37.4057 18.4626 38.155C17.4353 38.9042 16.6725 39.9603 16.284 41.171Z" stroke="white" stroke-width="4" stroke-linejoin="round"/>
<path d="M22 29C22.9193 29 23.8295 28.8189 24.6788 28.4672C25.5281 28.1154 26.2997 27.5998 26.9497 26.9497C27.5998 26.2997 28.1154 25.5281 28.4672 24.6788C28.8189 23.8295 29 22.9193 29 22C29 21.0807 28.8189 20.1705 28.4672 19.3212C28.1154 18.4719 27.5998 17.7003 26.9497 17.0503C26.2997 16.4002 25.5281 15.8846 24.6788 15.5328C23.8295 15.1811 22.9193 15 22 15C20.1435 15 18.363 15.7375 17.0503 17.0503C15.7375 18.363 15 20.1435 15 22C15 23.8565 15.7375 25.637 17.0503 26.9497C18.363 28.2625 20.1435 29 22 29V29Z" stroke="white" stroke-width="4" stroke-linejoin="round"/>
</svg>
